<svg width="256" height="256" viewBox="0 0 256 256" fill="none" xmlns="http://www.w3.org/2000/svg">
<g clip-path="url(#clip0_247_5499)">
<path d="M0 40C0 17.9086 17.9086 0 40 0H256V216C256 238.091 238.091 256 216 256H0V40Z" fill="#2B5336"/>
<path d="M127.406 88.3048H170.789V136.469L127.406 88.3048ZM81.4919 116.57H81.0703C81.0703 106.914 83.6951 99.7888 88.9455 95.1952C94.1951 90.6016 102.282 88.3048 113.203 88.3048L170.789 158.195C170.789 167.477 168.282 174.11 163.266 178.094C158.39 181.984 150.422 183.93 139.359 183.93L81.4919 116.57ZM81.2815 135.554L123.047 184H81.2815V135.554Z" fill="white"/>
</g>
<defs>
<clipPath id="clip0_247_5499">
<rect width="256" height="256" fill="white"/>
</clipPath>
</defs>
</svg>
